# xmcd
#
# Track frame offsets:
#	182
#	12152
#	29815
#	43750
#	52027
#	68562
#	78752
#	88145
#	92932
#	138962
#	165580
#
# Disc length: 2349 seconds
#
# Revision: 1
# Processed by: cddbd v1.5.2PL0 Copyright (c) Steve Scherf et al.
# Submitted via: audiograbber 1.83.01
#
DISCID=8c092b0b
DTITLE=Loggins and Messina - On Stage (Disc1)
DYEAR=1974
DGENRE=Rock
TTITLE0=House At Pooh Corner
TTITLE1=Danny's Song
TTITLE2=You Could Break My Heart
TTITLE3=Lady Of My Heart
TTITLE4=Long Tail Cat
TTITLE5=Listen To A Country Song
TTITLE6=Holiday Hotel
TTITLE7=Just Before The News
TTITLE8=Angry Eyes
TTITLE9=Golden Ribbons
TTITLE10=Another Road
EXTD=
EXTT0=
EXTT1=
EXTT2=
EXTT3=
EXTT4=
EXTT5=
EXTT6=
EXTT7=
EXTT8=
EXTT9=
EXTT10=
PLAYORDER=
